<svg width="18" height="18" stroke-width="0" viewBox="0 0 18 18" xmlns="http://www.w3.org/2000/svg">
<path d="M16.234 1.41176H13.883V0.529412C13.883 0.389003 13.8258 0.254345 13.7241 0.155061C13.6223 0.0557771 13.4843 0 13.3404 0C13.1965 0 13.0585 0.0557771 12.9568 0.155061C12.855 0.254345 12.7979 0.389003 12.7979 0.529412V1.41176H5.20213V0.529412C5.20213 0.389003 5.14497 0.254345 5.04322 0.155061C4.94147 0.0557771 4.80347 0 4.65957 0C4.51568 0 4.37768 0.0557771 4.27593 0.155061C4.17418 0.254345 4.11702 0.389003 4.11702 0.529412V1.41176H1.76596C1.4302 1.41176 1.1082 1.54191 0.87079 1.77357C0.633377 2.00524 0.5 2.31944 0.5 2.64706V16.7647C0.5 17.0923 0.633377 17.4065 0.87079 17.6382C1.1082 17.8699 1.4302 18 1.76596 18H16.234C16.5698 18 16.8918 17.8699 17.1292 17.6382C17.3666 17.4065 17.5 17.0923 17.5 16.7647V2.64706C17.5 2.31944 17.3666 2.00524 17.1292 1.77357C16.8918 1.54191 16.5698 1.41176 16.234 1.41176ZM1.76596 2.47059H4.11702V3.35294C4.11702 3.49335 4.17418 3.62801 4.27593 3.72729C4.37768 3.82658 4.51568 3.88235 4.65957 3.88235C4.80347 3.88235 4.94147 3.82658 5.04322 3.72729C5.14497 3.62801 5.20213 3.49335 5.20213 3.35294V2.47059H12.7979V3.35294C12.7979 3.49335 12.855 3.62801 12.9568 3.72729C13.0585 3.82658 13.1965 3.88235 13.3404 3.88235C13.4843 3.88235 13.6223 3.82658 13.7241 3.72729C13.8258 3.62801 13.883 3.49335 13.883 3.35294V2.47059H16.234C16.282 2.47059 16.328 2.48918 16.3619 2.52228C16.3958 2.55537 16.4149 2.60026 16.4149 2.64706V5.64706H1.58511V2.64706C1.58511 2.60026 1.60416 2.55537 1.63808 2.52228C1.67199 2.48918 1.71799 2.47059 1.76596 2.47059ZM16.234 16.9412H1.76596C1.71799 16.9412 1.67199 16.9226 1.63808 16.8895C1.60416 16.8564 1.58511 16.8115 1.58511 16.7647V6.70588H16.4149V16.7647C16.4149 16.8115 16.3958 16.8564 16.3619 16.8895C16.328 16.9226 16.282 16.9412 16.234 16.9412ZM7.37234 9V14.6471C7.37234 14.7875 7.31518 14.9221 7.21343 15.0214C7.11168 15.1207 6.97368 15.1765 6.82979 15.1765C6.68589 15.1765 6.54789 15.1207 6.44614 15.0214C6.3444 14.9221 6.28723 14.7875 6.28723 14.6471V9.85677L5.62532 10.1797C5.56155 10.2108 5.49214 10.2293 5.42105 10.2341C5.34995 10.239 5.27857 10.2302 5.21098 10.2081C5.14338 10.1861 5.0809 10.1513 5.0271 10.1057C4.97329 10.0601 4.92922 10.0046 4.89739 9.94235C4.86557 9.88013 4.84662 9.8124 4.84162 9.74303C4.83662 9.67366 4.84567 9.60401 4.86826 9.53805C4.89084 9.47209 4.92652 9.41112 4.97326 9.35862C5.02 9.30612 5.07687 9.26311 5.14064 9.23206L6.58745 8.52618C6.67018 8.48588 6.76209 8.46687 6.85446 8.47098C6.94684 8.47508 7.0366 8.50215 7.11523 8.54962C7.19387 8.59709 7.25877 8.66339 7.30376 8.74221C7.34876 8.82103 7.37237 8.90977 7.37234 9ZM12.759 11.5809L10.8085 14.1176H12.617C12.7609 14.1176 12.8989 14.1734 13.0007 14.2727C13.1024 14.372 13.1596 14.5067 13.1596 14.6471C13.1596 14.7875 13.1024 14.9221 13.0007 15.0214C12.8989 15.1207 12.7609 15.1765 12.617 15.1765H9.7234C9.62265 15.1765 9.52388 15.1491 9.43817 15.0974C9.35246 15.0457 9.28319 14.9718 9.23813 14.8838C9.19307 14.7959 9.17399 14.6974 9.18304 14.5995C9.19209 14.5016 9.22891 14.4081 9.28936 14.3294L11.8936 10.9412C11.9686 10.845 12.0226 10.7349 12.0521 10.6175C12.0817 10.5002 12.0863 10.3782 12.0655 10.2591C12.0448 10.14 11.9992 10.0263 11.9316 9.92504C11.864 9.82381 11.7758 9.73721 11.6725 9.67061C11.5692 9.60401 11.453 9.55882 11.331 9.53785C11.2091 9.51687 11.084 9.52057 10.9636 9.54869C10.8431 9.57681 10.7299 9.62877 10.6309 9.70135C10.5319 9.77392 10.4492 9.86556 10.388 9.97059C10.3557 10.0364 10.3097 10.095 10.253 10.1427C10.1964 10.1903 10.1302 10.226 10.0587 10.2475C9.98721 10.2691 9.91193 10.2759 9.83759 10.2677C9.76325 10.2594 9.69146 10.2363 9.62673 10.1997C9.562 10.163 9.50574 10.1138 9.46146 10.0549C9.41719 9.99605 9.38587 9.9289 9.36948 9.85767C9.35308 9.78644 9.35196 9.71266 9.36618 9.64099C9.3804 9.56931 9.40967 9.50129 9.45213 9.44118C9.58848 9.21276 9.7712 9.01393 9.9891 8.85686C10.207 8.6998 10.4555 8.58782 10.7193 8.52778C10.9831 8.46774 11.2567 8.46091 11.5233 8.50771C11.79 8.55451 12.044 8.65396 12.2698 8.79995C12.4957 8.94594 12.6886 9.1354 12.8367 9.35671C12.9848 9.57802 13.0851 9.82653 13.1313 10.087C13.1775 10.3475 13.1688 10.6144 13.1055 10.8714C13.0423 11.1285 12.9259 11.3702 12.7635 11.5818L12.759 11.5809Z"/>
</svg>
