<svg width="19" height="19" viewBox="0 0 19 19" fill="none" xmlns="http://www.w3.org/2000/svg"><path d="M9.5 18C14.1944 18 18 14.1944 18 9.5C18 4.80558 14.1944 1 9.5 1C4.80558 1 1 4.80558 1 9.5C1 14.1944 4.80558 18 9.5 18Z" stroke="#037EE5" stroke-width="1.5" stroke-linecap="round" stroke-linejoin="round"/><path d="M12.05 6.5251C11.4677 5.94286 10.4423 5.53787 9.49995 5.51251M9.49995 5.51251C8.37872 5.48233 7.37495 5.98958 7.37495 7.37511C7.37495 9.9251 12.05 8.6501 12.05 11.2001C12.05 12.6544 10.8057 13.2794 9.49995 13.2324M9.49995 5.51251V3.9751M6.94995 12.0501C7.49776 12.7805 8.51633 13.1971 9.49995 13.2324M9.49995 13.2324V15.0251" stroke="#037EE5" stroke-width="1.5" stroke-linecap="round" stroke-linejoin="round"/></svg>