<svg width="18" height="18" viewBox="0 0 18 18" fill="none" xmlns="http://www.w3.org/2000/svg"><path d="M7.225 3C7.08576 3 6.95223 3.09149 6.85377 3.25435C6.75531 3.41722 6.7 3.6381 6.7 3.86842C6.7 4.09874 6.75531 4.31963 6.85377 4.48249C6.95223 4.64535 7.08576 4.73684 7.225 4.73684H12.475C12.6142 4.73684 12.7478 4.64535 12.8462 4.48249C12.9447 4.31963 13 4.09874 13 3.86842C13 3.6381 12.9447 3.41722 12.8462 3.25435C12.7478 3.09149 12.6142 3 12.475 3H7.225ZM6 8.5C6 8.26968 6.05531 8.04879 6.15377 7.88593C6.25223 7.72307 6.38576 7.63158 6.525 7.63158H11.075C11.2142 7.63158 11.3478 7.72307 11.4462 7.88593C11.5447 8.04879 11.6 8.26968 11.6 8.5C11.6 8.73032 11.5447 8.95121 11.4462 9.11407C11.3478 9.27693 11.2142 9.36842 11.075 9.36842H6.525C6.38576 9.36842 6.25223 9.27693 6.15377 9.11407C6.05531 8.95121 6 8.73032 6 8.5ZM7.925 12.2632C7.78576 12.2632 7.65223 12.3547 7.55377 12.5175C7.45531 12.6804 7.4 12.9013 7.4 13.1316C7.4 13.3619 7.45531 13.5828 7.55377 13.7456C7.65223 13.9085 7.78576 14 7.925 14H12.475C12.6142 14 12.7478 13.9085 12.8462 13.7456C12.9447 13.5828 13 13.3619 13 13.1316C13 12.9013 12.9447 12.6804 12.8462 12.5175C12.7478 12.3547 12.6142 12.2632 12.475 12.2632H7.925Z" fill="#037EE5"/><path d="M0 1.575C0 0.7056 0.7056 0 1.575 0H16.425C17.2944 0 18 0.7056 18 1.575V16.425C18 16.8427 17.8341 17.2433 17.5387 17.5387C17.2433 17.8341 16.8427 18 16.425 18H1.575C1.15728 18 0.756677 17.8341 0.461307 17.5387C0.165937 17.2433 0 16.8427 0 16.425V1.575ZM1.575 1.35C1.51533 1.35 1.4581 1.37371 1.4159 1.4159C1.37371 1.4581 1.35 1.51533 1.35 1.575V16.425C1.35 16.5492 1.4508 16.65 1.575 16.65H16.425C16.4847 16.65 16.5419 16.6263 16.5841 16.5841C16.6263 16.5419 16.65 16.4847 16.65 16.425V1.575C16.65 1.51533 16.6263 1.4581 16.5841 1.4159C16.5419 1.37371 16.4847 1.35 16.425 1.35H1.575Z" fill="#037EE5"/></svg>