<svg width="19" height="19" viewBox="0 0 19 19" stroke="none" xmlns="http://www.w3.org/2000/svg" fill = "transparent">
<g>
    <path d="M7.7572 8.82617L1.51696 15.0127C0.82768 15.696 0.82768 16.804 1.51696 17.4873C2.20623 18.1706 3.32377 18.1706 4.01305 17.4873L10.2533 11.3008"  />
    <path d="M14.0603 11.6201L17.4829 15.0132C18.1722 15.6965 18.1722 16.8045 17.4829 17.4878C16.7937 18.1712 15.6761 18.1712 14.9868 17.4878L9.50781 12.0561" />
    <path d="M4.82935 4.71189L2.95728 5.33054L1.08521 2.2373L2.33325 1L5.45338 2.85595L4.82935 4.71189ZM4.82935 4.71189L7.32704 7.18807"/>
    <path d="M7.75716 8.826C7.0125 6.94233 7.15809 4.47075 8.69323 2.94885C10.2283 1.42694 13.0614 1.09291 14.6214 2.02088L11.938 4.68117L11.6886 7.40302L14.4341 7.15577L17.1175 4.49547C18.0536 6.04209 17.7166 8.85076 16.1815 10.3727C14.6463 11.8945 12.1533 12.0389 10.2533 11.3006" />
</g>
</svg>
